<svg width="40" height="40" viewBox="0 0 40 40" fill="none" xmlns="http://www.w3.org/2000/svg">
<path d="M9.91669 6C10.9167 5 10.1667 2 8.47869 2C6.79069 2 6.91669 4 7.91669 4C8.91669 4 8.91669 6 8.91669 7C8.91669 8 9.91669 6 9.91669 6ZM5.73369 7.72C6.73369 6.72 5.98369 3.72 4.29569 3.72C2.60769 3.72 2.73369 5.72 3.73369 5.72C4.73369 5.72 4.73369 7.72 4.73369 8.72C4.73369 9.72 5.73369 7.72 5.73369 7.72Z" fill="#AA8DD8"/>
<path d="M32.1087 34.856C32.2977 35.664 33.3357 37.136 34.1407 36.947C34.9467 36.757 35.2177 34.976 35.0287 34.17C34.8397 33.362 34.0307 32.863 33.2247 33.053C32.4197 33.243 31.9187 34.05 32.1087 34.856V34.856ZM26.6747 35.505C26.6777 36.335 27.3557 38.003 28.1837 38C29.0117 37.996 29.6777 36.323 29.6747 35.494C29.6717 34.665 28.9977 33.997 28.1697 33.999C27.3417 34.003 26.6717 34.676 26.6747 35.505V35.505ZM21.4037 33.059C21.0777 33.823 21.0387 35.622 21.7997 35.949C22.5627 36.273 23.8367 35.002 24.1627 34.239C24.4877 33.477 24.1347 32.596 23.3737 32.269C22.6117 31.944 21.7307 32.296 21.4037 33.059V33.059ZM16.3727 22.019C15.5607 22.191 14.0647 23.192 14.2337 24.002C14.4067 24.812 16.1787 25.126 16.9907 24.955C17.8017 24.784 18.3197 23.988 18.1507 23.178C17.9787 22.368 17.1857 21.848 16.3727 22.019ZM14.3357 17.019C13.5237 17.191 12.0277 18.192 12.1967 19.002C12.3697 19.812 14.1417 20.126 14.9537 19.955C15.7647 19.784 16.2827 18.988 16.1137 18.178C15.9417 17.368 15.1477 16.848 14.3357 17.019V17.019Z" fill="#744EAA"/>
<path d="M29.7457 36C32.5767 36 34.6717 35.123 35.0117 34.973C37.2827 33.963 38.3047 31.304 37.2957 29.034C36.2967 26.784 33.6797 25.759 31.4237 26.72C31.2907 26.77 29.6307 27.369 28.0807 26.648C26.2297 25.787 25.0857 23.339 24.4527 21.439C24.3087 21.009 24.0677 20.165 23.7667 19.123C21.9007 12.652 20.9347 10.838 19.7837 9.30299C16.0727 4.35199 10.1917 4.00699 7.30068 4.58699C4.86368 5.07399 3.28268 7.44499 3.77068 9.88199C4.25868 12.32 6.63068 13.902 9.06668 13.412C9.22868 13.386 11.2707 13.106 12.4907 14.581C13.1337 15.868 14.5707 19.709 15.1207 21.615C15.4667 22.814 15.7497 23.786 15.9147 24.282C17.6877 29.599 20.5807 33.175 24.5177 34.911C26.3697 35.729 28.1717 36 29.7457 36Z" fill="#9266CC"/>
<path d="M9.18372 8C9.736 8 10.1837 7.55228 10.1837 7C10.1837 6.44772 9.736 6 9.18372 6C8.63143 6 8.18372 6.44772 8.18372 7C8.18372 7.55228 8.63143 8 9.18372 8Z" fill="#202024"/>
<path d="M33.2601 34.0224C33.1711 34.0224 33.0801 34.0104 32.9911 33.9864C32.4591 33.8384 32.1471 33.2874 32.2951 32.7554C33.0521 30.0334 31.5251 28.2134 31.5101 28.1954C31.1511 27.7764 31.1981 27.1444 31.6171 26.7854C32.0351 26.4264 32.6681 26.4734 33.0271 26.8924C33.1191 26.9994 35.2611 29.5524 34.2221 33.2894C34.1001 33.7324 33.6971 34.0224 33.2601 34.0224V34.0224ZM26.0611 33.4594C25.8161 33.4594 25.5711 33.3704 25.3771 33.1894C24.9741 32.8114 24.9531 32.1784 25.3301 31.7754C26.8151 30.1884 26.7831 27.5824 26.7821 27.5554C26.7661 27.0034 27.2011 26.5434 27.7541 26.5274C28.2961 26.5224 28.7671 26.9464 28.7821 27.4994C28.7861 27.6384 28.8551 30.9364 26.7911 33.1434C26.5941 33.3534 26.3271 33.4594 26.0611 33.4594V33.4594ZM17.5191 24.7634C17.0391 24.7634 16.6151 24.4164 16.5341 23.9264C16.4441 23.3824 16.8121 22.8664 17.3571 22.7774C20.4311 22.2674 22.1311 20.4004 22.1481 20.3814C22.5131 19.9714 23.1461 19.9324 23.5571 20.2974C23.9691 20.6624 24.0101 21.2904 23.6481 21.7034C23.5611 21.8024 21.4921 24.1184 17.6841 24.7494C17.6281 24.7594 17.5731 24.7634 17.5191 24.7634V24.7634ZM20.4401 29.6204C20.0151 29.6204 19.6211 29.3484 19.4861 28.9224C19.3201 28.3964 19.6121 27.8334 20.1381 27.6674C22.8311 26.8144 24.0181 24.8374 24.0301 24.8174C24.3101 24.3404 24.9221 24.1804 25.3981 24.4604C25.8751 24.7394 26.0341 25.3534 25.7551 25.8284C25.6921 25.9364 24.1601 28.4914 20.7421 29.5724C20.6411 29.6054 20.5391 29.6204 20.4401 29.6204V29.6204ZM15.8211 18.9504C15.3251 18.9504 14.8941 18.5814 14.8301 18.0754C14.7611 17.5274 15.1491 17.0274 15.6971 16.9574C18.3861 16.6174 20.3541 14.9864 20.3731 14.9694C20.7951 14.6154 21.4261 14.6664 21.7811 15.0884C22.1371 15.5094 22.0861 16.1384 21.6661 16.4954C21.5691 16.5784 19.2461 18.5244 15.9481 18.9414C15.9051 18.9474 15.8631 18.9504 15.8211 18.9504V18.9504ZM14.0001 14.1834C13.5751 14.1834 13.1811 13.9104 13.0461 13.4824C12.8811 12.9554 13.1731 12.3944 13.7001 12.2284C16.8301 11.2454 17.9531 9.53645 17.9991 9.46445C18.2941 9.00245 18.9101 8.85944 19.3741 9.15244C19.8391 9.44444 19.9851 10.0514 19.6981 10.5184C19.6381 10.6154 18.1921 12.9144 14.2991 14.1374C14.2001 14.1684 14.0991 14.1834 14.0001 14.1834V14.1834Z" fill="#744EAA"/>
</svg>
